# xmcd CD database file
#
# Track frame offsets:
#	150
#	25485
#	47643
#	69533
#	93388
#	112565
#
# Disc length: 1728 seconds
#
# Revision: 2
# Processed by: cddbd v1.5.2PL0 Copyright (c) Steve Scherf et al.
# Submitted via: CDex 1.70beta3
#
DISCID=4306be06
DTITLE=Ten - Fear The Force
DYEAR=1999
DGENRE=Melodic Hard Rock
TTITLE0=Fear The Force
TTITLE1=Xanadu
TTITLE2=Rainbow In The Dark
TTITLE3=We Rule The Night (Acoustic Version)
TTITLE4=Red (Acoustic Version)
TTITLE5=Till The End Of Time (Acoustic Version)
EXTD=YEAR: 1999
EXTT0=
EXTT1=
EXTT2=
EXTT3=
EXTT4=
EXTT5=
PLAYORDER=
